# xmcd
#
# Track frame offsets:
#	150
#	23821
#	37465
#	50328
#	63110
#	76866
#	93966
#	111294
#	129597
#	145212
#	165939
#	182918
#	195459
#	213321
#	229755
#	247218
#	267381
#	285841
#	300116
#	314648
#
# Disc length: 4351 seconds
#
# Revision: 1
# Processed by: cddbd v1.5.1PL0 Copyright (c) Steve Scherf et al.
# Submitted via: audiograbber 1.83.01
#
DISCID=1410fd14
DTITLE=REMIX - Cumbia Villera
DYEAR=2004
DGENRE=Cumbia
TTITLE0=El Original - Vivir sin ti
TTITLE1=Damas Gratis - Que duro q me quede
TTITLE2=El Bajo - Escucha el Bajo
TTITLE3=El Plan - Traca Traca
TTITLE4=Pibes Chorro - Colate un dedo
TTITLE5=Corre Guachin - Solo en la cama
TTITLE6=Maximo Consumo - Veneno para olvidar
TTITLE7=Super Merk 2 - El Camion
TTITLE8=Corre Guachin - Aguitala
TTITLE9=Corre Guachin - El Trueke
TTITLE10=Maximo Cumbieros - No puedo entender
TTITLE11=Escucha - La Barca
TTITLE12=Hiper Merk 2 - Domingo a la Tarde
TTITLE13=Corre Guachin - La Gata
TTITLE14=Eschuca - Sigue Bailando
TTITLE15=Escuhca - Quiero una Chica
TTITLE16=Escucha - Tardes Negras
TTITLE17=El Plan - Una lo sabe
TTITLE18=El Plan - Soñador Eterno
TTITLE19=Hiper Merk 2 - El sueño de mi vida
EXTD=
EXTT0=
EXTT1=
EXTT2=
EXTT3=
EXTT4=
EXTT5=
EXTT6=
EXTT7=
EXTT8=
EXTT9=
EXTT10=
EXTT11=
EXTT12=
EXTT13=
EXTT14=
EXTT15=
EXTT16=
EXTT17=
EXTT18=
EXTT19=
PLAYORDER=
